<svg width="167" height="108" viewBox="0 0 167 108" fill="none" xmlns="http://www.w3.org/2000/svg">
<g filter="url(#filter0_d_276_224)">
<ellipse cx="83.5" cy="50" rx="79.5" ry="50" fill="white"/>
</g>
<path d="M113.814 50.8565C116.06 63.4016 104.838 75.9059 88.7487 78.7857C72.6598 81.6655 57.7968 73.8302 55.5513 61.2852C53.3059 48.7401 64.5282 36.2358 80.6171 33.356C96.706 30.4762 111.569 38.3115 113.814 50.8565Z" fill="black" fill-opacity="0.09"/>
<circle cx="80.8252" cy="47.8252" r="30.8252" fill="black" fill-opacity="0.25"/>
<circle cx="80.8252" cy="47.8252" r="30.8252" fill="#C4C4C4"/>
<circle cx="80.8252" cy="47.8252" r="30.3252" stroke="#817F7F" stroke-opacity="0.18"/>
<ellipse cx="65.9697" cy="47.8253" rx="12.9986" ry="24.1402" fill="#CBC9C9"/>
<ellipse cx="59.6561" cy="49.3107" rx="8.17053" ry="17.4552" fill="#E1E1E1"/>
<ellipse cx="58.9133" cy="49.3105" rx="7.42776" ry="15.9697" fill="#F3F3F3"/>
<ellipse cx="57.7991" cy="48.9394" rx="4.82804" ry="10.3989" fill="white"/>
<path d="M36.4793 42.5V59H31.4043V53.275L31.4793 47.725H31.4043L28.2043 59H23.5543L20.4043 47.725H20.3043L20.3793 53.275V59H15.2793V42.5H23.4293L25.3293 49.825L26.0543 52.9H26.1043L26.8293 49.825L28.7293 42.5H36.4793ZM46.4854 59V42.5H60.1854V46.775H52.3104V48.825H58.6604V52.775H52.3104V54.725H60.4854V59H46.4854ZM77.7348 42.5C80.3181 42.5 82.2681 43.2167 83.5848 44.65C84.9014 46.0833 85.5598 48.1167 85.5598 50.75C85.5598 53.3667 84.9014 55.4 83.5848 56.85C82.2681 58.2833 80.3181 59 77.7348 59H69.6348V42.5H77.7348ZM76.9098 54.85C77.9931 54.85 78.7098 54.525 79.0598 53.875C79.4264 53.2083 79.6098 52.1667 79.6098 50.75C79.6098 49.3333 79.4264 48.3 79.0598 47.65C78.7098 46.9833 77.9931 46.65 76.9098 46.65H75.4598V54.85H76.9098ZM100.855 42.5V59H95.0303V42.5H100.855ZM118.73 42.25C121.364 42.25 123.414 42.9917 124.88 44.475C126.364 45.9583 127.105 48.05 127.105 50.75C127.105 53.45 126.364 55.5417 124.88 57.025C123.414 58.5083 121.364 59.25 118.73 59.25C116.997 59.25 115.497 58.9167 114.23 58.25C112.98 57.5833 112.014 56.6167 111.33 55.35C110.664 54.0833 110.33 52.55 110.33 50.75C110.33 48.95 110.664 47.4167 111.33 46.15C112.014 44.8833 112.98 43.9167 114.23 43.25C115.497 42.5833 116.997 42.25 118.73 42.25ZM118.73 46.625C117.88 46.625 117.255 46.9583 116.855 47.625C116.472 48.275 116.28 49.3167 116.28 50.75C116.28 52.1833 116.472 53.2333 116.855 53.9C117.255 54.55 117.88 54.875 118.73 54.875C119.58 54.875 120.197 54.55 120.58 53.9C120.964 53.2333 121.155 52.1833 121.155 50.75C121.155 49.3167 120.964 48.275 120.58 47.625C120.197 46.9583 119.58 46.625 118.73 46.625ZM152.718 42.5V59H146.418L142.468 51.5L141.568 49.475H141.518L141.618 52.875V59H136.568V42.5H142.868L146.818 50.025L147.718 52.025H147.768L147.668 48.625V42.5H152.718Z" fill="black"/>
<path d="M14.0293 62.125H153.968V63.375H14.0293V62.125Z" fill="black"/>
<defs>
<filter id="filter0_d_276_224" x="0" y="0" width="167" height="108" filterUnits="userSpaceOnUse" color-interpolation-filters="sRGB">
<feFlood flood-opacity="0" result="BackgroundImageFix"/>
<feColorMatrix in="SourceAlpha" type="matrix" values="0 0 0 0 0 0 0 0 0 0 0 0 0 0 0 0 0 0 127 0" result="hardAlpha"/>
<feOffset dy="4"/>
<feGaussianBlur stdDeviation="2"/>
<feComposite in2="hardAlpha" operator="out"/>
<feColorMatrix type="matrix" values="0 0 0 0 0 0 0 0 0 0 0 0 0 0 0 0 0 0 0.25 0"/>
<feBlend mode="normal" in2="BackgroundImageFix" result="effect1_dropShadow_276_224"/>
<feBlend mode="normal" in="SourceGraphic" in2="effect1_dropShadow_276_224" result="shape"/>
</filter>
</defs>
</svg>
