<svg width="150" height="67" viewBox="0 0 150 67" fill="none" xmlns="http://www.w3.org/2000/svg">
<path d="M104.814 33.8565C107.06 46.4016 95.8376 58.9059 79.7487 61.7857C63.6598 64.6655 48.7968 56.8302 46.5513 44.2852C44.3059 31.7401 55.5282 19.2358 71.6171 16.356C87.706 13.4762 102.569 21.3115 104.814 33.8565Z" fill="black" fill-opacity="0.09"/>
<circle cx="71.8252" cy="30.8252" r="30.8252" fill="black" fill-opacity="0.25"/>
<circle cx="71.8252" cy="30.8252" r="30.8252" fill="#C4C4C4"/>
<circle cx="71.8252" cy="30.8252" r="30.3252" stroke="#817F7F" stroke-opacity="0.18"/>
<ellipse cx="56.9697" cy="30.8253" rx="12.9986" ry="24.1402" fill="#CBC9C9"/>
<ellipse cx="50.6561" cy="32.3107" rx="8.17053" ry="17.4552" fill="#E1E1E1"/>
<ellipse cx="49.9133" cy="32.3107" rx="7.42776" ry="15.9697" fill="#F3F3F3"/>
<ellipse cx="48.7991" cy="31.9394" rx="4.82804" ry="10.3989" fill="white"/>
<path d="M27.4793 25.5V42H22.4043V36.275L22.4793 30.725H22.4043L19.2043 42H14.5543L11.4043 30.725H11.3043L11.3793 36.275V42H6.2793V25.5H14.4293L16.3293 32.825L17.0543 35.9H17.1043L17.8293 32.825L19.7293 25.5H27.4793ZM37.4854 42V25.5H51.1854V29.775H43.3104V31.825H49.6604V35.775H43.3104V37.725H51.4854V42H37.4854ZM68.7348 25.5C71.3181 25.5 73.2681 26.2167 74.5848 27.65C75.9014 29.0833 76.5598 31.1167 76.5598 33.75C76.5598 36.3667 75.9014 38.4 74.5848 39.85C73.2681 41.2833 71.3181 42 68.7348 42H60.6348V25.5H68.7348ZM67.9098 37.85C68.9931 37.85 69.7098 37.525 70.0598 36.875C70.4264 36.2083 70.6098 35.1667 70.6098 33.75C70.6098 32.3333 70.4264 31.3 70.0598 30.65C69.7098 29.9833 68.9931 29.65 67.9098 29.65H66.4598V37.85H67.9098ZM91.8553 25.5V42H86.0303V25.5H91.8553ZM109.73 25.25C111.48 25.25 112.98 25.5833 114.23 26.25C115.48 26.9167 116.439 27.8833 117.105 29.15C117.772 30.4167 118.105 31.95 118.105 33.75C118.105 35.55 117.772 37.0833 117.105 38.35C116.439 39.6167 115.48 40.5833 114.23 41.25C112.98 41.9167 111.48 42.25 109.73 42.25C107.997 42.25 106.497 41.9167 105.23 41.25C103.98 40.5833 103.014 39.6167 102.33 38.35C101.664 37.0833 101.33 35.55 101.33 33.75C101.33 31.95 101.664 30.4167 102.33 29.15C103.014 27.8833 103.98 26.9167 105.23 26.25C106.497 25.5833 107.997 25.25 109.73 25.25ZM109.73 29.625C109.164 29.625 108.697 29.775 108.33 30.075C107.98 30.3583 107.714 30.8 107.53 31.4C107.364 32 107.28 32.7833 107.28 33.75C107.28 34.7 107.364 35.4833 107.53 36.1C107.714 36.7 107.98 37.15 108.33 37.45C108.697 37.7333 109.164 37.875 109.73 37.875C110.297 37.875 110.755 37.7333 111.105 37.45C111.472 37.15 111.739 36.7 111.905 36.1C112.072 35.4833 112.155 34.7 112.155 33.75C112.155 32.7833 112.072 32 111.905 31.4C111.739 30.8 111.472 30.3583 111.105 30.075C110.755 29.775 110.297 29.625 109.73 29.625ZM143.718 25.5V42H137.418L133.468 34.5L132.568 32.475H132.518L132.618 35.875V42H127.568V25.5H133.868L137.818 33.025L138.718 35.025H138.768L138.668 31.625V25.5H143.718Z" fill="black"/>
<path d="M5.0293 45.125H144.968V46.375H5.0293V45.125Z" fill="black"/>
</svg>
