<svg width="24" height="24" viewBox="0 0 24 24" fill="none" xmlns="http://www.w3.org/2000/svg">
<path d="M9.50001 4C10.7436 3.99997 11.961 4.35667 13.008 5.02777C14.0549 5.69886 14.8873 6.65619 15.4065 7.78618C15.9257 8.91616 16.1099 10.1714 15.9371 11.4029C15.7644 12.6344 15.242 13.7905 14.432 14.734L20.076 20.378L19.369 21.085L13.724 15.44C12.9279 16.1208 11.979 16.5991 10.9582 16.8342C9.93737 17.0693 8.87486 17.0542 7.86114 16.7901C6.84743 16.5261 5.91255 16.021 5.13612 15.3178C4.3597 14.6146 3.76473 13.7341 3.40189 12.7514C3.03905 11.7687 2.91909 10.7129 3.05223 9.67387C3.18536 8.63483 3.56765 7.64336 4.16654 6.7839C4.76542 5.92444 5.56315 5.22246 6.4918 4.73774C7.42044 4.25302 8.45248 3.99992 9.50001 4ZM9.50001 5C8.04132 5 6.64238 5.57946 5.61093 6.61091C4.57948 7.64236 4.00001 9.04131 4.00001 10.5C4.00001 11.9587 4.57948 13.3576 5.61093 14.3891C6.64238 15.4205 8.04132 16 9.50001 16C10.9587 16 12.3577 15.4205 13.3891 14.3891C14.4206 13.3576 15 11.9587 15 10.5C15 9.04131 14.4206 7.64236 13.3891 6.61091C12.3577 5.57946 10.9587 5 9.50001 5Z" fill="black"/>
</svg>
