<svg width="24" height="24" viewBox="0 0 24 24" fill="none" xmlns="http://www.w3.org/2000/svg">
<path d="M18 18C18.5304 18 19.0391 18.2107 19.4142 18.5858C19.7893 18.9609 20 19.4696 20 20C20 20.5304 19.7893 21.0391 19.4142 21.4142C19.0391 21.7893 18.5304 22 18 22C17.4696 22 16.9609 21.7893 16.5858 21.4142C16.2107 21.0391 16 20.5304 16 20C16 19.4696 16.2107 18.9609 16.5858 18.5858C16.9609 18.2107 17.4696 18 18 18ZM18 19C17.7348 19 17.4804 19.1054 17.2929 19.2929C17.1054 19.4804 17 19.7348 17 20C17 20.2652 17.1054 20.5196 17.2929 20.7071C17.4804 20.8946 17.7348 21 18 21C18.2652 21 18.5196 20.8946 18.7071 20.7071C18.8946 20.5196 19 20.2652 19 20C19 19.7348 18.8946 19.4804 18.7071 19.2929C18.5196 19.1054 18.2652 19 18 19ZM9 18C9.53043 18 10.0391 18.2107 10.4142 18.5858C10.7893 18.9609 11 19.4696 11 20C11 20.5304 10.7893 21.0391 10.4142 21.4142C10.0391 21.7893 9.53043 22 9 22C8.46957 22 7.96086 21.7893 7.58579 21.4142C7.21071 21.0391 7 20.5304 7 20C7 19.4696 7.21071 18.9609 7.58579 18.5858C7.96086 18.2107 8.46957 18 9 18ZM9 19C8.73478 19 8.48043 19.1054 8.29289 19.2929C8.10536 19.4804 8 19.7348 8 20C8 20.2652 8.10536 20.5196 8.29289 20.7071C8.48043 20.8946 8.73478 21 9 21C9.26522 21 9.51957 20.8946 9.70711 20.7071C9.89464 20.5196 10 20.2652 10 20C10 19.7348 9.89464 19.4804 9.70711 19.2929C9.51957 19.1054 9.26522 19 9 19ZM20 6H6.273L8.82 12H17C17.1555 12.0002 17.3089 11.964 17.4478 11.8942C17.5868 11.8244 17.7074 11.7229 17.8 11.598L20.8 7.598H20.801C20.9119 7.44936 20.9793 7.2728 20.9956 7.08806C21.012 6.90333 20.9766 6.71769 20.8935 6.55189C20.8104 6.3861 20.6828 6.24668 20.525 6.14922C20.3672 6.05176 20.1855 6.00009 20 6ZM17 13H8.866L8.1 14.56L8 15C8 15.2652 8.10536 15.5196 8.29289 15.7071C8.48043 15.8946 8.73478 16 9 16H20V17H9C8.65177 17.0002 8.30952 16.9094 8.00713 16.7367C7.70474 16.564 7.45269 16.3153 7.27591 16.0153C7.09912 15.7153 7.00374 15.3743 6.9992 15.0261C6.99465 14.6779 7.08111 14.3345 7.25 14.03L7.97 12.556L6.154 8.278L4.338 4H3V3H5L5.849 5H20C20.3779 5.00004 20.748 5.10712 21.0675 5.30885C21.3871 5.51059 21.6429 5.79871 21.8054 6.13985C21.9679 6.481 22.0305 6.8612 21.9858 7.23642C21.9411 7.61165 21.7911 7.96654 21.553 8.26L18.639 12.146C18.4548 12.4098 18.2095 12.6252 17.9242 12.7739C17.6388 12.9226 17.3218 13.0002 17 13Z" fill="black" stroke="black"/>
<path d="M8.5 12L6 6H21C21.1667 6.33333 20.7 8 17.5 12H8.5Z" fill="black" stroke="black"/>
<circle cx="18" cy="20" r="1" fill="black"/>
<circle cx="9" cy="20" r="1" fill="black"/>
</svg>
